<svg id="Layer_1" data-name="Layer 1" xmlns="http://www.w3.org/2000/svg" xmlns:xlink="http://www.w3.org/1999/xlink" viewBox="0 0 100 100"><defs><style>.cls-1{fill:none;}.cls-2{clip-path:url(#clip-path);}.cls-3{fill:#fff;}</style><clipPath id="clip-path"><rect class="cls-1" x="28.14" y="9.96" width="43.71" height="80.04"/></clipPath></defs><title>fb-icon</title><g class="cls-2"><path class="cls-3" d="M69.79,9.88l-10.38,0c-11.66,0-19.2,7.74-19.2,19.7v9.08H29.77a1.63,1.63,0,0,0-1.63,1.63V53.43a1.63,1.63,0,0,0,1.63,1.63H40.21V88.27a1.63,1.63,0,0,0,1.63,1.63H55.46a1.63,1.63,0,0,0,1.63-1.63V55.06h12.2a1.63,1.63,0,0,0,1.63-1.63V40.27a1.66,1.66,0,0,0-.48-1.15,1.62,1.62,0,0,0-1.15-.48H57.09v-7.7c0-3.7.88-5.58,5.7-5.58h7a1.62,1.62,0,0,0,1.63-1.63V11.51a1.62,1.62,0,0,0-1.62-1.63Zm0,0"/></g></svg>