<svg id="Layer_1" data-name="Layer 1" xmlns="http://www.w3.org/2000/svg" viewBox="0 0 100 100"><defs><style>.cls-1{fill:#fff;}</style></defs><title>insta-icon</title><path class="cls-1" d="M50.79,89.77H50c-6.27,0-12.06-.14-17.7-.48a23.66,23.66,0,0,1-13.64-5.17A21.85,21.85,0,0,1,11.3,72.24a52.08,52.08,0,0,1-1.21-12.57c0-2.92-.08-6.38-.09-9.9s.05-7,.09-9.92A52,52,0,0,1,11.3,27.29a21.88,21.88,0,0,1,7.35-11.88,23.65,23.65,0,0,1,13.64-5.16c5.64-.34,11.43-.5,17.72-.49s12.06.15,17.7.49a23.62,23.62,0,0,1,13.63,5.16A21.89,21.89,0,0,1,88.7,27.29a53,53,0,0,1,1.21,12.56c0,2.92.08,6.39.09,9.9v0c0,3.52,0,7-.09,9.9A52.59,52.59,0,0,1,88.7,72.24a21.86,21.86,0,0,1-7.36,11.87,23.63,23.63,0,0,1-13.63,5.17c-5.4.33-10.94.49-16.92.49ZM50,83.51c6.17,0,11.83-.14,17.34-.47a17.23,17.23,0,0,0,10.06-3.77,15.7,15.7,0,0,0,5.25-8.58,47.32,47.32,0,0,0,1-11.1c0-2.91.08-6.34.09-9.83s0-6.92-.09-9.82a47.36,47.36,0,0,0-1-11.11,15.74,15.74,0,0,0-5.25-8.58,17.16,17.16,0,0,0-10.06-3.76C61.82,16.15,56.16,16,50,16s-11.84.14-17.34.48A17.19,17.19,0,0,0,22.6,20.25a15.85,15.85,0,0,0-5.25,8.58,47.89,47.89,0,0,0-1,11.11c0,2.9-.08,6.34-.09,9.83s.05,6.91.09,9.82a47.86,47.86,0,0,0,1,11.1,15.82,15.82,0,0,0,5.25,8.58A17.26,17.26,0,0,0,32.67,83c5.5.33,11.17.49,17.32.47Zm-.15-14.22A19.53,19.53,0,1,1,69.37,49.76,19.55,19.55,0,0,1,49.84,69.29Zm0-32.81A13.28,13.28,0,1,0,63.12,49.76,13.3,13.3,0,0,0,49.84,36.48ZM71.56,24a4.69,4.69,0,1,0,4.69,4.69A4.69,4.69,0,0,0,71.56,24Zm0,0"/></svg>