<?xml version="1.0" encoding="utf-8"?>
<!-- Generator: Adobe Illustrator 22.1.0, SVG Export Plug-In . SVG Version: 6.00 Build 0)  -->
<svg version="1.1" id="Layer_1" xmlns="http://www.w3.org/2000/svg" xmlns:xlink="http://www.w3.org/1999/xlink" x="0px" y="0px"
	 viewBox="0 0 87.7 87.8" style="enable-background:new 0 0 87.7 87.8;" xml:space="preserve">
<style type="text/css">
	.st0{fill:#FFFFFF;}
</style>
<g>
	<title>menu-icon</title>
	<path class="st0" d="M80.6,20.3H7.1c-1.8,0-3.2-2.6-3.2-5.8s1.5-5.8,3.2-5.8h73.5c1.8,0,3.2,2.6,3.2,5.8S82.4,20.3,80.6,20.3z"/>
	<path class="st0" d="M80.6,49.7H7.1c-1.8,0-3.2-2.6-3.2-5.8s1.5-5.8,3.2-5.8h73.5c1.8,0,3.2,2.6,3.2,5.8S82.4,49.7,80.6,49.7z"/>
	<path class="st0" d="M80.6,79.1H7.1c-1.8,0-3.2-2.6-3.2-5.8s1.5-5.8,3.2-5.8h73.5c1.8,0,3.2,2.6,3.2,5.8S82.4,79.1,80.6,79.1z"/>
</g>
</svg>
