<?xml version="1.0" encoding="utf-8"?>
<!-- Generator: Adobe Illustrator 22.1.0, SVG Export Plug-In . SVG Version: 6.00 Build 0)  -->
<svg version="1.1" id="Layer_1" xmlns="http://www.w3.org/2000/svg" xmlns:xlink="http://www.w3.org/1999/xlink" x="0px" y="0px"
	 viewBox="0 0 183.3 100" style="enable-background:new 0 0 183.3 100;" xml:space="preserve">
<style type="text/css">
	.st0{fill:#FFFFFF;}
</style>
<title>rubylogo</title>
<path class="st0" d="M21.6,22.6c5.7,0,10.1,1.3,13.1,4s4.5,6.4,4.5,11.1c0.1,3-0.7,6-2.3,8.6c-1.6,2.4-4,4.3-6.8,5.3l9.5,17
	c0.1,0.2,0.2,0.5,0.2,0.8c0,0.8-0.7,1.5-1.5,1.5h-5.9c-0.7,0.1-1.4-0.2-2-0.7c-0.4-0.4-0.7-0.8-0.9-1.2l-9-16h-9.2v16
	c0,1-0.8,1.8-1.9,1.9H3.9c-1,0-1.9-0.8-1.9-1.9V24.4c0-1,0.8-1.8,1.9-1.9H21.6z M11.3,44.3h10c2.2,0.1,4.3-0.4,6.3-1.4
	c1.6-0.9,2.3-2.7,2.3-5.2s-0.8-4.3-2.3-5.2c-1.9-1-4.1-1.4-6.3-1.3h-10V44.3z"/>
<path class="st0" d="M85.3,22.6c1,0,1.8,0.8,1.9,1.9v28.2c0,2.6-0.4,5.2-1.2,7.7c-0.8,2.2-2.1,4.2-3.7,5.9c-1.8,1.7-3.9,3-6.2,3.8
	c-2.8,0.9-5.7,1.4-8.6,1.3c-2.9,0.1-5.9-0.4-8.6-1.3c-2.3-0.8-4.4-2.1-6.2-3.8c-1.7-1.7-2.9-3.7-3.7-5.9c-0.8-2.5-1.2-5.1-1.2-7.7
	V24.4c0-1,0.8-1.8,1.9-1.9h5.5c1,0,1.8,0.8,1.9,1.9v27.9c0,1.6,0.2,3.3,0.8,4.8c0.5,1.2,1.2,2.4,2.2,3.3c0.9,0.9,2.1,1.5,3.3,1.9
	c1.4,0.4,2.8,0.6,4.2,0.6c1.4,0,2.9-0.2,4.2-0.6c1.2-0.4,2.3-1,3.3-1.9c1-0.9,1.7-2,2.2-3.3c0.6-1.5,0.9-3.2,0.8-4.8V24.4
	c0-0.5,0.2-1,0.6-1.3c0.3-0.4,0.8-0.6,1.3-0.5L85.3,22.6z"/>
<path class="st0" d="M99.5,70.8c-0.5,0-1-0.2-1.3-0.6c-0.4-0.3-0.6-0.8-0.6-1.3V24.4c0-0.5,0.2-1,0.6-1.3c0.3-0.4,0.8-0.6,1.3-0.5
	h20.3c2.5-0.1,5,0.4,7.4,1.3c1.8,0.8,3.4,1.9,4.8,3.4c1.1,1.3,2,2.8,2.6,4.4c0.5,1.4,0.8,2.9,0.8,4.4c0,1.2-0.2,2.5-0.6,3.7
	c-0.3,1-0.8,1.9-1.3,2.8c-0.5,0.7-1,1.3-1.6,1.9c-0.4,0.4-0.8,0.7-1.3,1c1.6,1.1,2.9,2.5,3.9,4.1c1.3,2,1.9,4.3,1.8,6.7
	c0,1.8-0.4,3.5-1,5.2c-0.6,1.7-1.6,3.3-2.8,4.7c-1.3,1.4-2.9,2.6-4.6,3.3c-2,0.9-4.2,1.3-6.4,1.3L99.5,70.8z M126,36.5
	c0.1-1.5-0.5-3-1.6-4c-1.1-0.9-2.9-1.3-5.2-1.3h-12.2v10.6h12.2c2.4,0,4.1-0.5,5.2-1.3C125.5,39.4,126.1,38,126,36.5z M106.9,62.2
	h12.7c2.5,0,4.4-0.5,5.5-1.6c2.3-2.4,2.3-6.2-0.1-8.5c0,0,0,0,0,0c-1.6-1.2-3.5-1.8-5.5-1.7h-12.7V62.2z"/>
<path class="st0" d="M179.6,22.6c0.5,0,1,0.2,1.3,0.5c0.4,0.3,0.6,0.8,0.6,1.3c0,0.2,0,0.4-0.1,0.6L165,53.8v15.1
	c0,0.5-0.2,1-0.6,1.3c-0.3,0.4-0.8,0.6-1.3,0.6h-5.5c-1,0-1.8-0.8-1.9-1.9V53.8l-16.3-28.7c-0.1-0.2-0.1-0.4-0.1-0.6
	c0-1,0.8-1.8,1.9-1.9h5.2c0.8-0.1,1.5,0.2,2.1,0.7c0.3,0.3,0.6,0.6,0.8,1l11.1,19.5l11.1-19.4c0.2-0.4,0.5-0.7,0.8-1
	c0.6-0.5,1.3-0.7,2.1-0.7L179.6,22.6z"/>
</svg>
