<svg id="Layer_1" data-name="Layer 1" xmlns="http://www.w3.org/2000/svg" viewBox="0 0 100 100"><defs><style>.cls-1{fill:none;}.cls-2{fill:#fff;}</style></defs><title>shopping-icon</title><rect class="cls-1" x="11.89" y="12.76" width="76.23" height="80.24"/><path class="cls-2" d="M66.13,37.56a1.41,1.41,0,0,1-1.54-1.24V24.16c0-6.61-6.72-12-15-12s-15,5.4-15,12V36.32a1.56,1.56,0,0,1-3.06,0V24.16c0-8,8.12-14.46,18.09-14.46s18.07,6.49,18.07,14.46V36.32a1.41,1.41,0,0,1-1.53,1.24Zm0,0"/><path class="cls-2" d="M83.83,34.55a1.41,1.41,0,0,0-1.54-1.1H16.87a1.43,1.43,0,0,0-1.55,1.1L11.89,89a1,1,0,0,0,.41.86,1.9,1.9,0,0,0,1.11.35H85.74a1.84,1.84,0,0,0,1.11-.35,1,1,0,0,0,.42-.86ZM59.45,72.09a9.07,9.07,0,0,1-3.72,3.77A11.55,11.55,0,0,1,50,77.21,12.35,12.35,0,0,1,44.66,76a9.51,9.51,0,0,1-3.89-3.29,8.91,8.91,0,0,1-1.52-4.82h6.24A4.65,4.65,0,0,0,46.88,71,4.41,4.41,0,0,0,50,72.12a3.88,3.88,0,0,0,3.3-1.54,7.16,7.16,0,0,0,1.15-4.36,5.87,5.87,0,0,0-1.33-4.14,4.9,4.9,0,0,0-3.78-1.44,5.49,5.49,0,0,0-3.64,1.17l-.61.57-5-1.24L41.89,45H59.7v5.26H47.06l-.78,6.84a10,10,0,0,1,4.78-1.2,9.16,9.16,0,0,1,7.12,2.81q2.57,2.82,2.57,7.88A11.51,11.51,0,0,1,59.45,72.09Z"/></svg>