<svg id="Layer_1" data-name="Layer 1" xmlns="http://www.w3.org/2000/svg" viewBox="0 0 100 100"><defs><style>.cls-1{fill:#fff;}</style></defs><title>twitter-icon</title><path class="cls-1" d="M89.84,25.25a33,33,0,0,1-9.41,2.58,16.43,16.43,0,0,0,7.21-9.06,32.79,32.79,0,0,1-10.43,4A16.38,16.38,0,0,0,48.9,34a16.92,16.92,0,0,0,.42,3.73A46.49,46.49,0,0,1,15.56,20.57a16.38,16.38,0,0,0,5.06,21.85,16.15,16.15,0,0,1-7.4-2v.2A16.41,16.41,0,0,0,26.35,56.65a16.59,16.59,0,0,1-4.31.56,16.11,16.11,0,0,1-3.1-.29A16.44,16.44,0,0,0,34.24,68.3a32.92,32.92,0,0,1-20.34,7,33.61,33.61,0,0,1-3.9-.22,46.37,46.37,0,0,0,25.12,7.35c30.11,0,46.58-24.94,46.58-46.57l0-2.12a33.18,33.18,0,0,0,8.19-8.48Zm0,0"/></svg>